<svg width="32" height="33" viewBox="0 0 32 33" fill="none" xmlns="http://www.w3.org/2000/svg">
<path opacity="0.21" fill-rule="evenodd" clip-rule="evenodd" d="M0 16.5V22.5C0 28.0228 4.47715 32.5 10 32.5H16H22C27.5228 32.5 32 28.0228 32 22.5V16.5V10.5C32 4.97715 27.5228 0.5 22 0.5H16H10C4.47715 0.5 0 4.97715 0 10.5V16.5Z" fill="#4AD991"/>
<path d="M23.1541 9.34598C23.3541 9.54601 23.4664 9.81727 23.4664 10.1001C23.4664 10.383 23.3541 10.6542 23.1541 10.8542L10.3541 23.6542C10.1529 23.8486 9.88351 23.9561 9.60383 23.9536C9.32415 23.9512 9.05662 23.839 8.85885 23.6413C8.66108 23.4435 8.5489 23.176 8.54647 22.8963C8.54404 22.6166 8.65156 22.3472 8.84586 22.146L21.6459 9.34598C21.8459 9.14601 22.1172 9.03368 22.4 9.03368C22.6828 9.03368 22.9541 9.14601 23.1541 9.34598ZM21.3333 23.9668C21.8991 23.9668 22.4417 23.742 22.8418 23.3419C23.2419 22.9419 23.4667 22.3992 23.4667 21.8334C23.4667 21.2677 23.2419 20.725 22.8418 20.325C22.4417 19.9249 21.8991 19.7001 21.3333 19.7001C20.7675 19.7001 20.2249 19.9249 19.8248 20.325C19.4248 20.725 19.2 21.2677 19.2 21.8334C19.2 22.3992 19.4248 22.9419 19.8248 23.3419C20.2249 23.742 20.7675 23.9668 21.3333 23.9668ZM10.6667 13.3001C11.2325 13.3001 11.7751 13.0754 12.1752 12.6753C12.5752 12.2752 12.8 11.7326 12.8 11.1668C12.8 10.601 12.5752 10.0584 12.1752 9.65829C11.7751 9.25821 11.2325 9.03345 10.6667 9.03345C10.1009 9.03345 9.55824 9.25821 9.15816 9.65829C8.75809 10.0584 8.53333 10.601 8.53333 11.1668C8.53333 11.7326 8.75809 12.2752 9.15816 12.6753C9.55824 13.0754 10.1009 13.3001 10.6667 13.3001Z" fill="#4AD991"/>
</svg>
