<svg width="912" height="83" viewBox="0 0 912 83" fill="none" xmlns="http://www.w3.org/2000/svg">
<g clip-path="url(#clip0_140_17)">
<rect width="264" height="83" rx="8" fill="#8B67C2"/>
<path d="M74.3326 35.69L74.2346 33.534L79.3726 28.2H81.4166L77.1466 32.736L76.1386 33.842L74.3326 35.69ZM72.7086 38V28.2H74.5286V38H72.7086ZM79.5406 38L75.7886 33.534L76.9926 32.204L81.6686 38H79.5406ZM83.8723 38L81.1283 30.524H82.7803L85.1323 37.118H84.3483L86.8123 30.524H88.2823L90.6763 37.118H89.9063L92.3283 30.524H93.8823L91.1243 38H89.4443L87.2603 32.162H87.7783L85.5523 38H83.8723ZM99.4591 38V36.488L99.3611 36.166V33.52C99.3611 33.0067 99.2071 32.61 98.8991 32.33C98.5911 32.0407 98.1244 31.896 97.4991 31.896C97.0791 31.896 96.6637 31.9613 96.2531 32.092C95.8517 32.2227 95.5111 32.4047 95.2311 32.638L94.5451 31.364C94.9464 31.056 95.4224 30.8273 95.9731 30.678C96.5331 30.5193 97.1117 30.44 97.7091 30.44C98.7917 30.44 99.6271 30.7013 100.215 31.224C100.812 31.7373 101.111 32.5353 101.111 33.618V38H99.4591ZM97.1071 38.098C96.5471 38.098 96.0571 38.0047 95.6371 37.818C95.2171 37.622 94.8904 37.356 94.6571 37.02C94.4331 36.6747 94.3211 36.2873 94.3211 35.858C94.3211 35.438 94.4191 35.06 94.6151 34.724C94.8204 34.388 95.1517 34.122 95.6091 33.926C96.0664 33.73 96.6731 33.632 97.4291 33.632H99.5991V34.794H97.5551C96.9577 34.794 96.5564 34.892 96.3511 35.088C96.1457 35.2747 96.0431 35.508 96.0431 35.788C96.0431 36.1053 96.1691 36.3573 96.4211 36.544C96.6731 36.7307 97.0231 36.824 97.4711 36.824C97.9004 36.824 98.2831 36.726 98.6191 36.53C98.9644 36.334 99.2117 36.0447 99.3611 35.662L99.6551 36.712C99.4871 37.1507 99.1837 37.4913 98.7451 37.734C98.3157 37.9767 97.7697 38.098 97.1071 38.098ZM103.357 38V27.612H105.107V38H103.357ZM107.404 38V30.524H109.154V38H107.404ZM108.286 29.292C107.959 29.292 107.689 29.1893 107.474 28.984C107.269 28.7787 107.166 28.5313 107.166 28.242C107.166 27.9433 107.269 27.696 107.474 27.5C107.689 27.2947 107.959 27.192 108.286 27.192C108.613 27.192 108.879 27.29 109.084 27.486C109.299 27.6727 109.406 27.9107 109.406 28.2C109.406 28.508 109.303 28.7693 109.098 28.984C108.893 29.1893 108.622 29.292 108.286 29.292ZM114.265 38.098C113.443 38.098 112.809 37.888 112.361 37.468C111.913 37.0387 111.689 36.4087 111.689 35.578V28.872H113.439V35.536C113.439 35.8907 113.527 36.166 113.705 36.362C113.891 36.558 114.148 36.656 114.475 36.656C114.867 36.656 115.193 36.5533 115.455 36.348L115.945 37.594C115.739 37.762 115.487 37.888 115.189 37.972C114.89 38.056 114.582 38.098 114.265 38.098ZM110.457 31.98V30.58H115.441V31.98H110.457ZM120.652 38.098C119.822 38.098 119.094 37.9347 118.468 37.608C117.852 37.272 117.372 36.8147 117.026 36.236C116.69 35.6573 116.522 34.9993 116.522 34.262C116.522 33.5153 116.686 32.8573 117.012 32.288C117.348 31.7093 117.806 31.2567 118.384 30.93C118.972 30.6033 119.64 30.44 120.386 30.44C121.114 30.44 121.763 30.5987 122.332 30.916C122.902 31.2333 123.35 31.6813 123.676 32.26C124.003 32.8387 124.166 33.52 124.166 34.304C124.166 34.3787 124.162 34.4627 124.152 34.556C124.152 34.6493 124.148 34.738 124.138 34.822H117.908V33.66H123.214L122.528 34.024C122.538 33.5947 122.449 33.2167 122.262 32.89C122.076 32.5633 121.819 32.3067 121.492 32.12C121.175 31.9333 120.806 31.84 120.386 31.84C119.957 31.84 119.579 31.9333 119.252 32.12C118.935 32.3067 118.683 32.568 118.496 32.904C118.319 33.2307 118.23 33.618 118.23 34.066V34.346C118.23 34.794 118.333 35.1907 118.538 35.536C118.744 35.8813 119.033 36.1473 119.406 36.334C119.78 36.5207 120.209 36.614 120.694 36.614C121.114 36.614 121.492 36.5487 121.828 36.418C122.164 36.2873 122.463 36.082 122.724 35.802L123.662 36.88C123.326 37.272 122.902 37.5753 122.388 37.79C121.884 37.9953 121.306 38.098 120.652 38.098ZM125.847 38V30.524H127.597V38H125.847ZM126.729 29.292C126.403 29.292 126.132 29.1893 125.917 28.984C125.712 28.7787 125.609 28.5313 125.609 28.242C125.609 27.9433 125.712 27.696 125.917 27.5C126.132 27.2947 126.403 27.192 126.729 27.192C127.056 27.192 127.322 27.29 127.527 27.486C127.742 27.6727 127.849 27.9107 127.849 28.2C127.849 28.508 127.747 28.7693 127.541 28.984C127.336 29.1893 127.065 29.292 126.729 29.292ZM132.708 38.098C131.887 38.098 131.252 37.888 130.804 37.468C130.356 37.0387 130.132 36.4087 130.132 35.578V28.872H131.882V35.536C131.882 35.8907 131.971 36.166 132.148 36.362C132.335 36.558 132.591 36.656 132.918 36.656C133.31 36.656 133.637 36.5533 133.898 36.348L134.388 37.594C134.183 37.762 133.931 37.888 133.632 37.972C133.333 38.056 133.025 38.098 132.708 38.098ZM128.9 31.98V30.58H133.884V31.98H128.9ZM141.685 38L138.479 30.524H140.299L143.057 37.118H142.161L145.017 30.524H146.697L143.491 38H141.685ZM152.164 38V36.488L152.066 36.166V33.52C152.066 33.0067 151.912 32.61 151.604 32.33C151.296 32.0407 150.829 31.896 150.204 31.896C149.784 31.896 149.369 31.9613 148.958 32.092C148.557 32.2227 148.216 32.4047 147.936 32.638L147.25 31.364C147.651 31.056 148.127 30.8273 148.678 30.678C149.238 30.5193 149.817 30.44 150.414 30.44C151.497 30.44 152.332 30.7013 152.92 31.224C153.517 31.7373 153.816 32.5353 153.816 33.618V38H152.164ZM149.812 38.098C149.252 38.098 148.762 38.0047 148.342 37.818C147.922 37.622 147.595 37.356 147.362 37.02C147.138 36.6747 147.026 36.2873 147.026 35.858C147.026 35.438 147.124 35.06 147.32 34.724C147.525 34.388 147.857 34.122 148.314 33.926C148.771 33.73 149.378 33.632 150.134 33.632H152.304V34.794H150.26C149.663 34.794 149.261 34.892 149.056 35.088C148.851 35.2747 148.748 35.508 148.748 35.788C148.748 36.1053 148.874 36.3573 149.126 36.544C149.378 36.7307 149.728 36.824 150.176 36.824C150.605 36.824 150.988 36.726 151.324 36.53C151.669 36.334 151.917 36.0447 152.066 35.662L152.36 36.712C152.192 37.1507 151.889 37.4913 151.45 37.734C151.021 37.9767 150.475 38.098 149.812 38.098ZM160.304 30.44C160.901 30.44 161.433 30.5567 161.9 30.79C162.376 31.0233 162.749 31.3827 163.02 31.868C163.291 32.344 163.426 32.96 163.426 33.716V38H161.676V33.94C161.676 33.2773 161.517 32.7827 161.2 32.456C160.892 32.1293 160.458 31.966 159.898 31.966C159.487 31.966 159.123 32.05 158.806 32.218C158.489 32.386 158.241 32.638 158.064 32.974C157.896 33.3007 157.812 33.716 157.812 34.22V38H156.062V30.524H157.728V32.54L157.434 31.924C157.695 31.448 158.073 31.084 158.568 30.832C159.072 30.5707 159.651 30.44 160.304 30.44ZM173.757 30.44C174.355 30.44 174.887 30.5567 175.353 30.79C175.829 31.0233 176.203 31.3827 176.473 31.868C176.744 32.344 176.879 32.96 176.879 33.716V38H175.129V33.94C175.129 33.2773 174.971 32.7827 174.653 32.456C174.345 32.1293 173.911 31.966 173.351 31.966C172.941 31.966 172.577 32.05 172.259 32.218C171.942 32.386 171.695 32.638 171.517 32.974C171.349 33.3007 171.265 33.716 171.265 34.22V38H169.515V27.612H171.265V32.54L170.887 31.924C171.149 31.448 171.527 31.084 172.021 30.832C172.525 30.5707 173.104 30.44 173.757 30.44ZM182.627 38.098C181.796 38.098 181.068 37.9347 180.443 37.608C179.827 37.272 179.346 36.8147 179.001 36.236C178.665 35.6573 178.497 34.9993 178.497 34.262C178.497 33.5153 178.66 32.8573 178.987 32.288C179.323 31.7093 179.78 31.2567 180.359 30.93C180.947 30.6033 181.614 30.44 182.361 30.44C183.089 30.44 183.738 30.5987 184.307 30.916C184.876 31.2333 185.324 31.6813 185.651 32.26C185.978 32.8387 186.141 33.52 186.141 34.304C186.141 34.3787 186.136 34.4627 186.127 34.556C186.127 34.6493 186.122 34.738 186.113 34.822H179.883V33.66H185.189L184.503 34.024C184.512 33.5947 184.424 33.2167 184.237 32.89C184.05 32.5633 183.794 32.3067 183.467 32.12C183.15 31.9333 182.781 31.84 182.361 31.84C181.932 31.84 181.554 31.9333 181.227 32.12C180.91 32.3067 180.658 32.568 180.471 32.904C180.294 33.2307 180.205 33.618 180.205 34.066V34.346C180.205 34.794 180.308 35.1907 180.513 35.536C180.718 35.8813 181.008 36.1473 181.381 36.334C181.754 36.5207 182.184 36.614 182.669 36.614C183.089 36.614 183.467 36.5487 183.803 36.418C184.139 36.2873 184.438 36.082 184.699 35.802L185.637 36.88C185.301 37.272 184.876 37.5753 184.363 37.79C183.859 37.9953 183.28 38.098 182.627 38.098ZM190.636 38.098C189.814 38.098 189.18 37.888 188.732 37.468C188.284 37.0387 188.06 36.4087 188.06 35.578V28.872H189.81V35.536C189.81 35.8907 189.898 36.166 190.076 36.362C190.262 36.558 190.519 36.656 190.846 36.656C191.238 36.656 191.564 36.5533 191.826 36.348L192.316 37.594C192.11 37.762 191.858 37.888 191.56 37.972C191.261 38.056 190.953 38.098 190.636 38.098ZM186.828 31.98V30.58H191.812V31.98H186.828ZM71.4731 55.098C70.8385 55.098 70.2785 54.9813 69.7931 54.748C69.3078 54.5053 68.9298 54.1413 68.6591 53.656C68.3885 53.1613 68.2531 52.5407 68.2531 51.794V47.524H70.0031V51.556C70.0031 52.228 70.1525 52.732 70.4511 53.068C70.7591 53.3947 71.1931 53.558 71.7531 53.558C72.1638 53.558 72.5185 53.474 72.8171 53.306C73.1251 53.138 73.3631 52.886 73.5311 52.55C73.7085 52.214 73.7971 51.7987 73.7971 51.304V47.524H75.5471V55H73.8811V52.984L74.1751 53.6C73.9231 54.0853 73.5545 54.4587 73.0691 54.72C72.5838 54.972 72.0518 55.098 71.4731 55.098ZM77.8384 55V47.524H79.5884V55H77.8384ZM78.7204 46.292C78.3938 46.292 78.1231 46.1893 77.9084 45.984C77.7031 45.7787 77.6004 45.5313 77.6004 45.242C77.6004 44.9433 77.7031 44.696 77.9084 44.5C78.1231 44.2947 78.3938 44.192 78.7204 44.192C79.0471 44.192 79.3131 44.29 79.5184 44.486C79.7331 44.6727 79.8404 44.9107 79.8404 45.2C79.8404 45.508 79.7378 45.7693 79.5324 45.984C79.3271 46.1893 79.0564 46.292 78.7204 46.292ZM84.6993 55.098C83.878 55.098 83.2433 54.888 82.7953 54.468C82.3473 54.0387 82.1233 53.4087 82.1233 52.578V45.872H83.8733V52.536C83.8733 52.8907 83.962 53.166 84.1393 53.362C84.326 53.558 84.5826 53.656 84.9093 53.656C85.3013 53.656 85.628 53.5533 85.8893 53.348L86.3793 54.594C86.174 54.762 85.922 54.888 85.6233 54.972C85.3246 55.056 85.0166 55.098 84.6993 55.098ZM80.8913 48.98V47.58H85.8753V48.98H80.8913ZM89.6702 55L86.4642 47.524H88.2842L91.0422 54.118H90.1462L93.0022 47.524H94.6822L91.4762 55H89.6702ZM98.9309 55.098C98.1655 55.098 97.4842 54.9347 96.8869 54.608C96.2895 54.272 95.8182 53.8147 95.4729 53.236C95.1275 52.6573 94.9549 51.9993 94.9549 51.262C94.9549 50.5153 95.1275 49.8573 95.4729 49.288C95.8182 48.7093 96.2895 48.2567 96.8869 47.93C97.4842 47.6033 98.1655 47.44 98.9309 47.44C99.7055 47.44 100.392 47.6033 100.989 47.93C101.596 48.2567 102.067 48.7047 102.403 49.274C102.748 49.8433 102.921 50.506 102.921 51.262C102.921 51.9993 102.748 52.6573 102.403 53.236C102.067 53.8147 101.596 54.272 100.989 54.608C100.392 54.9347 99.7055 55.098 98.9309 55.098ZM98.9309 53.6C99.3602 53.6 99.7429 53.5067 100.079 53.32C100.415 53.1333 100.676 52.8627 100.863 52.508C101.059 52.1533 101.157 51.738 101.157 51.262C101.157 50.7767 101.059 50.3613 100.863 50.016C100.676 49.6613 100.415 49.3907 100.079 49.204C99.7429 49.0173 99.3649 48.924 98.9449 48.924C98.5155 48.924 98.1329 49.0173 97.7969 49.204C97.4702 49.3907 97.2089 49.6613 97.0129 50.016C96.8169 50.3613 96.7189 50.7767 96.7189 51.262C96.7189 51.738 96.8169 52.1533 97.0129 52.508C97.2089 52.8627 97.4702 53.1333 97.7969 53.32C98.1329 53.5067 98.5109 53.6 98.9309 53.6ZM108.108 55.098C107.278 55.098 106.55 54.9347 105.924 54.608C105.308 54.272 104.828 53.8147 104.482 53.236C104.146 52.6573 103.978 51.9993 103.978 51.262C103.978 50.5153 104.142 49.8573 104.468 49.288C104.804 48.7093 105.262 48.2567 105.84 47.93C106.428 47.6033 107.096 47.44 107.842 47.44C108.57 47.44 109.219 47.5987 109.788 47.916C110.358 48.2333 110.806 48.6813 111.132 49.26C111.459 49.8387 111.622 50.52 111.622 51.304C111.622 51.3787 111.618 51.4627 111.608 51.556C111.608 51.6493 111.604 51.738 111.594 51.822H105.364V50.66H110.67L109.984 51.024C109.994 50.5947 109.905 50.2167 109.718 49.89C109.532 49.5633 109.275 49.3067 108.948 49.12C108.631 48.9333 108.262 48.84 107.842 48.84C107.413 48.84 107.035 48.9333 106.708 49.12C106.391 49.3067 106.139 49.568 105.952 49.904C105.775 50.2307 105.686 50.618 105.686 51.066V51.346C105.686 51.794 105.789 52.1907 105.994 52.536C106.2 52.8813 106.489 53.1473 106.862 53.334C107.236 53.5207 107.665 53.614 108.15 53.614C108.57 53.614 108.948 53.5487 109.284 53.418C109.62 53.2873 109.919 53.082 110.18 52.802L111.118 53.88C110.782 54.272 110.358 54.5753 109.844 54.79C109.34 54.9953 108.762 55.098 108.108 55.098ZM113.303 55V47.524H114.969V49.582L114.773 48.98C114.997 48.476 115.347 48.0933 115.823 47.832C116.309 47.5707 116.911 47.44 117.629 47.44V49.106C117.555 49.0873 117.485 49.078 117.419 49.078C117.354 49.0687 117.289 49.064 117.223 49.064C116.561 49.064 116.033 49.26 115.641 49.652C115.249 50.0347 115.053 50.6087 115.053 51.374V55H113.303ZM119.114 55V47.524H120.864V55H119.114ZM119.996 46.292C119.669 46.292 119.398 46.1893 119.184 45.984C118.978 45.7787 118.876 45.5313 118.876 45.242C118.876 44.9433 118.978 44.696 119.184 44.5C119.398 44.2947 119.669 44.192 119.996 44.192C120.322 44.192 120.588 44.29 120.794 44.486C121.008 44.6727 121.116 44.9107 121.116 45.2C121.116 45.508 121.013 45.7693 120.808 45.984C120.602 46.1893 120.332 46.292 119.996 46.292ZM127.403 47.44C128 47.44 128.532 47.5567 128.999 47.79C129.475 48.0233 129.848 48.3827 130.119 48.868C130.389 49.344 130.525 49.96 130.525 50.716V55H128.775V50.94C128.775 50.2773 128.616 49.7827 128.299 49.456C127.991 49.1293 127.557 48.966 126.997 48.966C126.586 48.966 126.222 49.05 125.905 49.218C125.587 49.386 125.34 49.638 125.163 49.974C124.995 50.3007 124.911 50.716 124.911 51.22V55H123.161V47.524H124.827V49.54L124.533 48.924C124.794 48.448 125.172 48.084 125.667 47.832C126.171 47.5707 126.749 47.44 127.403 47.44ZM136.146 57.814C135.456 57.814 134.779 57.7207 134.116 57.534C133.463 57.3567 132.926 57.0953 132.506 56.75L133.29 55.434C133.617 55.7047 134.028 55.9193 134.522 56.078C135.026 56.246 135.535 56.33 136.048 56.33C136.87 56.33 137.472 56.1387 137.854 55.756C138.237 55.3827 138.428 54.818 138.428 54.062V52.732L138.568 51.038L138.512 49.344V47.524H140.178V53.866C140.178 55.2193 139.833 56.2133 139.142 56.848C138.452 57.492 137.453 57.814 136.146 57.814ZM135.922 54.664C135.213 54.664 134.569 54.5147 133.99 54.216C133.421 53.908 132.968 53.4833 132.632 52.942C132.306 52.4007 132.142 51.766 132.142 51.038C132.142 50.3193 132.306 49.6893 132.632 49.148C132.968 48.6067 133.421 48.1867 133.99 47.888C134.569 47.5893 135.213 47.44 135.922 47.44C136.557 47.44 137.126 47.566 137.63 47.818C138.134 48.07 138.536 48.462 138.834 48.994C139.142 49.526 139.296 50.2073 139.296 51.038C139.296 51.8687 139.142 52.5547 138.834 53.096C138.536 53.628 138.134 54.0247 137.63 54.286C137.126 54.538 136.557 54.664 135.922 54.664ZM136.188 53.18C136.627 53.18 137.019 53.0913 137.364 52.914C137.71 52.7273 137.976 52.4753 138.162 52.158C138.358 51.8313 138.456 51.458 138.456 51.038C138.456 50.618 138.358 50.2493 138.162 49.932C137.976 49.6053 137.71 49.358 137.364 49.19C137.019 49.0127 136.627 48.924 136.188 48.924C135.75 48.924 135.353 49.0127 134.998 49.19C134.653 49.358 134.382 49.6053 134.186 49.932C134 50.2493 133.906 50.618 133.906 51.038C133.906 51.458 134 51.8313 134.186 52.158C134.382 52.4753 134.653 52.7273 134.998 52.914C135.353 53.0913 135.75 53.18 136.188 53.18ZM144.789 55.098C144.164 55.098 143.562 55.0187 142.983 54.86C142.414 54.692 141.961 54.4913 141.625 54.258L142.297 52.928C142.633 53.1427 143.034 53.32 143.501 53.46C143.968 53.6 144.434 53.67 144.901 53.67C145.452 53.67 145.848 53.5953 146.091 53.446C146.343 53.2967 146.469 53.096 146.469 52.844C146.469 52.6387 146.385 52.4847 146.217 52.382C146.049 52.27 145.83 52.186 145.559 52.13C145.288 52.074 144.985 52.0227 144.649 51.976C144.322 51.9293 143.991 51.8687 143.655 51.794C143.328 51.71 143.03 51.5933 142.759 51.444C142.488 51.2853 142.269 51.0753 142.101 50.814C141.933 50.5527 141.849 50.2073 141.849 49.778C141.849 49.302 141.984 48.8913 142.255 48.546C142.526 48.1913 142.904 47.9207 143.389 47.734C143.884 47.538 144.467 47.44 145.139 47.44C145.643 47.44 146.152 47.496 146.665 47.608C147.178 47.72 147.603 47.8787 147.939 48.084L147.267 49.414C146.912 49.1993 146.553 49.0547 146.189 48.98C145.834 48.896 145.48 48.854 145.125 48.854C144.593 48.854 144.196 48.9333 143.935 49.092C143.683 49.2507 143.557 49.4513 143.557 49.694C143.557 49.918 143.641 50.086 143.809 50.198C143.977 50.31 144.196 50.3987 144.467 50.464C144.738 50.5293 145.036 50.5853 145.363 50.632C145.699 50.6693 146.03 50.73 146.357 50.814C146.684 50.898 146.982 51.0147 147.253 51.164C147.533 51.304 147.757 51.5047 147.925 51.766C148.093 52.0273 148.177 52.368 148.177 52.788C148.177 53.2547 148.037 53.6607 147.757 54.006C147.486 54.3513 147.099 54.622 146.595 54.818C146.091 55.0047 145.489 55.098 144.789 55.098ZM153.828 55.098C153.221 55.098 152.666 54.958 152.162 54.678C151.667 54.398 151.271 53.978 150.972 53.418C150.683 52.8487 150.538 52.13 150.538 51.262C150.538 50.3847 150.678 49.666 150.958 49.106C151.247 48.546 151.639 48.1307 152.134 47.86C152.629 47.58 153.193 47.44 153.828 47.44C154.565 47.44 155.214 47.5987 155.774 47.916C156.343 48.2333 156.791 48.6767 157.118 49.246C157.454 49.8153 157.622 50.4873 157.622 51.262C157.622 52.0367 157.454 52.7133 157.118 53.292C156.791 53.8613 156.343 54.3047 155.774 54.622C155.214 54.9393 154.565 55.098 153.828 55.098ZM149.684 57.716V47.524H151.35V49.288L151.294 51.276L151.434 53.264V57.716H149.684ZM153.632 53.6C154.052 53.6 154.425 53.5067 154.752 53.32C155.088 53.1333 155.354 52.8627 155.55 52.508C155.746 52.1533 155.844 51.738 155.844 51.262C155.844 50.7767 155.746 50.3613 155.55 50.016C155.354 49.6613 155.088 49.3907 154.752 49.204C154.425 49.0173 154.052 48.924 153.632 48.924C153.212 48.924 152.834 49.0173 152.498 49.204C152.162 49.3907 151.896 49.6613 151.7 50.016C151.504 50.3613 151.406 50.7767 151.406 51.262C151.406 51.738 151.504 52.1533 151.7 52.508C151.896 52.8627 152.162 53.1333 152.498 53.32C152.834 53.5067 153.212 53.6 153.632 53.6ZM159.282 55V47.524H160.948V49.582L160.752 48.98C160.976 48.476 161.326 48.0933 161.802 47.832C162.287 47.5707 162.889 47.44 163.608 47.44V49.106C163.533 49.0873 163.463 49.078 163.398 49.078C163.332 49.0687 163.267 49.064 163.202 49.064C162.539 49.064 162.012 49.26 161.62 49.652C161.228 50.0347 161.032 50.6087 161.032 51.374V55H159.282ZM168.384 55.098C167.619 55.098 166.937 54.9347 166.34 54.608C165.743 54.272 165.271 53.8147 164.926 53.236C164.581 52.6573 164.408 51.9993 164.408 51.262C164.408 50.5153 164.581 49.8573 164.926 49.288C165.271 48.7093 165.743 48.2567 166.34 47.93C166.937 47.6033 167.619 47.44 168.384 47.44C169.159 47.44 169.845 47.6033 170.442 47.93C171.049 48.2567 171.52 48.7047 171.856 49.274C172.201 49.8433 172.374 50.506 172.374 51.262C172.374 51.9993 172.201 52.6573 171.856 53.236C171.52 53.8147 171.049 54.272 170.442 54.608C169.845 54.9347 169.159 55.098 168.384 55.098ZM168.384 53.6C168.813 53.6 169.196 53.5067 169.532 53.32C169.868 53.1333 170.129 52.8627 170.316 52.508C170.512 52.1533 170.61 51.738 170.61 51.262C170.61 50.7767 170.512 50.3613 170.316 50.016C170.129 49.6613 169.868 49.3907 169.532 49.204C169.196 49.0173 168.818 48.924 168.398 48.924C167.969 48.924 167.586 49.0173 167.25 49.204C166.923 49.3907 166.662 49.6613 166.466 50.016C166.27 50.3613 166.172 50.7767 166.172 51.262C166.172 51.738 166.27 52.1533 166.466 52.508C166.662 52.8627 166.923 53.1333 167.25 53.32C167.586 53.5067 167.964 53.6 168.384 53.6ZM177.477 55.098C176.693 55.098 175.993 54.9347 175.377 54.608C174.771 54.272 174.295 53.8147 173.949 53.236C173.604 52.6573 173.431 51.9993 173.431 51.262C173.431 50.5153 173.604 49.8573 173.949 49.288C174.295 48.7093 174.771 48.2567 175.377 47.93C175.993 47.6033 176.693 47.44 177.477 47.44C178.205 47.44 178.845 47.5893 179.395 47.888C179.955 48.1773 180.38 48.6067 180.669 49.176L179.325 49.96C179.101 49.6053 178.826 49.344 178.499 49.176C178.182 49.008 177.837 48.924 177.463 48.924C177.034 48.924 176.647 49.0173 176.301 49.204C175.956 49.3907 175.685 49.6613 175.489 50.016C175.293 50.3613 175.195 50.7767 175.195 51.262C175.195 51.7473 175.293 52.1673 175.489 52.522C175.685 52.8673 175.956 53.1333 176.301 53.32C176.647 53.5067 177.034 53.6 177.463 53.6C177.837 53.6 178.182 53.516 178.499 53.348C178.826 53.18 179.101 52.9187 179.325 52.564L180.669 53.348C180.38 53.908 179.955 54.342 179.395 54.65C178.845 54.9487 178.205 55.098 177.477 55.098ZM185.587 55.098C184.756 55.098 184.028 54.9347 183.403 54.608C182.787 54.272 182.306 53.8147 181.961 53.236C181.625 52.6573 181.457 51.9993 181.457 51.262C181.457 50.5153 181.62 49.8573 181.947 49.288C182.283 48.7093 182.74 48.2567 183.319 47.93C183.907 47.6033 184.574 47.44 185.321 47.44C186.049 47.44 186.697 47.5987 187.267 47.916C187.836 48.2333 188.284 48.6813 188.611 49.26C188.937 49.8387 189.101 50.52 189.101 51.304C189.101 51.3787 189.096 51.4627 189.087 51.556C189.087 51.6493 189.082 51.738 189.073 51.822H182.843V50.66H188.149L187.463 51.024C187.472 50.5947 187.383 50.2167 187.197 49.89C187.01 49.5633 186.753 49.3067 186.427 49.12C186.109 48.9333 185.741 48.84 185.321 48.84C184.891 48.84 184.513 48.9333 184.187 49.12C183.869 49.3067 183.617 49.568 183.431 49.904C183.253 50.2307 183.165 50.618 183.165 51.066V51.346C183.165 51.794 183.267 52.1907 183.473 52.536C183.678 52.8813 183.967 53.1473 184.341 53.334C184.714 53.5207 185.143 53.614 185.629 53.614C186.049 53.614 186.427 53.5487 186.763 53.418C187.099 53.2873 187.397 53.082 187.659 52.802L188.597 53.88C188.261 54.272 187.836 54.5753 187.323 54.79C186.819 54.9953 186.24 55.098 185.587 55.098ZM193.092 55.098C192.466 55.098 191.864 55.0187 191.286 54.86C190.716 54.692 190.264 54.4913 189.928 54.258L190.6 52.928C190.936 53.1427 191.337 53.32 191.804 53.46C192.27 53.6 192.737 53.67 193.204 53.67C193.754 53.67 194.151 53.5953 194.394 53.446C194.646 53.2967 194.772 53.096 194.772 52.844C194.772 52.6387 194.688 52.4847 194.52 52.382C194.352 52.27 194.132 52.186 193.862 52.13C193.591 52.074 193.288 52.0227 192.952 51.976C192.625 51.9293 192.294 51.8687 191.958 51.794C191.631 51.71 191.332 51.5933 191.062 51.444C190.791 51.2853 190.572 51.0753 190.404 50.814C190.236 50.5527 190.152 50.2073 190.152 49.778C190.152 49.302 190.287 48.8913 190.558 48.546C190.828 48.1913 191.206 47.9207 191.692 47.734C192.186 47.538 192.77 47.44 193.442 47.44C193.946 47.44 194.454 47.496 194.968 47.608C195.481 47.72 195.906 47.8787 196.242 48.084L195.57 49.414C195.215 49.1993 194.856 49.0547 194.492 48.98C194.137 48.896 193.782 48.854 193.428 48.854C192.896 48.854 192.499 48.9333 192.238 49.092C191.986 49.2507 191.86 49.4513 191.86 49.694C191.86 49.918 191.944 50.086 192.112 50.198C192.28 50.31 192.499 50.3987 192.77 50.464C193.04 50.5293 193.339 50.5853 193.666 50.632C194.002 50.6693 194.333 50.73 194.66 50.814C194.986 50.898 195.285 51.0147 195.556 51.164C195.836 51.304 196.06 51.5047 196.228 51.766C196.396 52.0273 196.48 52.368 196.48 52.788C196.48 53.2547 196.34 53.6607 196.06 54.006C195.789 54.3513 195.402 54.622 194.898 54.818C194.394 55.0047 193.792 55.098 193.092 55.098Z" fill="white"/>
<path d="M271.5 41.5H316.5" stroke="#020202" stroke-width="5" stroke-linecap="round" stroke-linejoin="round"/>
<path d="M309 34L316.5 41.5L309 49" stroke="#020202" stroke-width="5" stroke-linecap="round" stroke-linejoin="round"/>
<rect x="324" width="264" height="83" rx="8" fill="#8B67C2"/>
<path d="M360.892 44.69L360.794 42.534L365.932 37.2H367.976L363.706 41.736L362.698 42.842L360.892 44.69ZM359.268 47V37.2H361.088V47H359.268ZM366.1 47L362.348 42.534L363.552 41.204L368.228 47H366.1ZM370.432 47L367.688 39.524H369.34L371.692 46.118H370.908L373.372 39.524H374.842L377.236 46.118H376.466L378.888 39.524H380.442L377.684 47H376.004L373.82 41.162H374.338L372.112 47H370.432ZM386.019 47V45.488L385.921 45.166V42.52C385.921 42.0067 385.767 41.61 385.459 41.33C385.151 41.0407 384.684 40.896 384.059 40.896C383.639 40.896 383.223 40.9613 382.813 41.092C382.411 41.2227 382.071 41.4047 381.791 41.638L381.105 40.364C381.506 40.056 381.982 39.8273 382.533 39.678C383.093 39.5193 383.671 39.44 384.269 39.44C385.351 39.44 386.187 39.7013 386.775 40.224C387.372 40.7373 387.671 41.5353 387.671 42.618V47H386.019ZM383.667 47.098C383.107 47.098 382.617 47.0047 382.197 46.818C381.777 46.622 381.45 46.356 381.217 46.02C380.993 45.6747 380.881 45.2873 380.881 44.858C380.881 44.438 380.979 44.06 381.175 43.724C381.38 43.388 381.711 43.122 382.169 42.926C382.626 42.73 383.233 42.632 383.989 42.632H386.159V43.794H384.115C383.517 43.794 383.116 43.892 382.911 44.088C382.705 44.2747 382.603 44.508 382.603 44.788C382.603 45.1053 382.729 45.3573 382.981 45.544C383.233 45.7307 383.583 45.824 384.031 45.824C384.46 45.824 384.843 45.726 385.179 45.53C385.524 45.334 385.771 45.0447 385.921 44.662L386.215 45.712C386.047 46.1507 385.743 46.4913 385.305 46.734C384.875 46.9767 384.329 47.098 383.667 47.098ZM389.917 47V36.612H391.667V47H389.917ZM393.963 47V39.524H395.713V47H393.963ZM394.845 38.292C394.519 38.292 394.248 38.1893 394.033 37.984C393.828 37.7787 393.725 37.5313 393.725 37.242C393.725 36.9433 393.828 36.696 394.033 36.5C394.248 36.2947 394.519 36.192 394.845 36.192C395.172 36.192 395.438 36.29 395.643 36.486C395.858 36.6727 395.965 36.9107 395.965 37.2C395.965 37.508 395.863 37.7693 395.657 37.984C395.452 38.1893 395.181 38.292 394.845 38.292ZM400.824 47.098C400.003 47.098 399.368 46.888 398.92 46.468C398.472 46.0387 398.248 45.4087 398.248 44.578V37.872H399.998V44.536C399.998 44.8907 400.087 45.166 400.264 45.362C400.451 45.558 400.708 45.656 401.034 45.656C401.426 45.656 401.753 45.5533 402.014 45.348L402.504 46.594C402.299 46.762 402.047 46.888 401.748 46.972C401.45 47.056 401.142 47.098 400.824 47.098ZM397.016 40.98V39.58H402V40.98H397.016ZM407.212 47.098C406.381 47.098 405.653 46.9347 405.028 46.608C404.412 46.272 403.931 45.8147 403.586 45.236C403.25 44.6573 403.082 43.9993 403.082 43.262C403.082 42.5153 403.245 41.8573 403.572 41.288C403.908 40.7093 404.365 40.2567 404.944 39.93C405.532 39.6033 406.199 39.44 406.946 39.44C407.674 39.44 408.322 39.5987 408.892 39.916C409.461 40.2333 409.909 40.6813 410.236 41.26C410.562 41.8387 410.726 42.52 410.726 43.304C410.726 43.3787 410.721 43.4627 410.712 43.556C410.712 43.6493 410.707 43.738 410.698 43.822H404.468V42.66H409.774L409.088 43.024C409.097 42.5947 409.008 42.2167 408.822 41.89C408.635 41.5633 408.378 41.3067 408.052 41.12C407.734 40.9333 407.366 40.84 406.946 40.84C406.516 40.84 406.138 40.9333 405.812 41.12C405.494 41.3067 405.242 41.568 405.056 41.904C404.878 42.2307 404.79 42.618 404.79 43.066V43.346C404.79 43.794 404.892 44.1907 405.098 44.536C405.303 44.8813 405.592 45.1473 405.966 45.334C406.339 45.5207 406.768 45.614 407.254 45.614C407.674 45.614 408.052 45.5487 408.388 45.418C408.724 45.2873 409.022 45.082 409.284 44.802L410.222 45.88C409.886 46.272 409.461 46.5753 408.948 46.79C408.444 46.9953 407.865 47.098 407.212 47.098ZM412.407 47V39.524H414.157V47H412.407ZM413.289 38.292C412.962 38.292 412.691 38.1893 412.477 37.984C412.271 37.7787 412.169 37.5313 412.169 37.242C412.169 36.9433 412.271 36.696 412.477 36.5C412.691 36.2947 412.962 36.192 413.289 36.192C413.615 36.192 413.881 36.29 414.087 36.486C414.301 36.6727 414.409 36.9107 414.409 37.2C414.409 37.508 414.306 37.7693 414.101 37.984C413.895 38.1893 413.625 38.292 413.289 38.292ZM419.268 47.098C418.446 47.098 417.812 46.888 417.364 46.468C416.916 46.0387 416.692 45.4087 416.692 44.578V37.872H418.442V44.536C418.442 44.8907 418.53 45.166 418.708 45.362C418.894 45.558 419.151 45.656 419.478 45.656C419.87 45.656 420.196 45.5533 420.458 45.348L420.948 46.594C420.742 46.762 420.49 46.888 420.192 46.972C419.893 47.056 419.585 47.098 419.268 47.098ZM415.46 40.98V39.58H420.444V40.98H415.46ZM428.244 47L425.038 39.524H426.858L429.616 46.118H428.72L431.576 39.524H433.256L430.05 47H428.244ZM438.724 47V45.488L438.626 45.166V42.52C438.626 42.0067 438.472 41.61 438.164 41.33C437.856 41.0407 437.389 40.896 436.764 40.896C436.344 40.896 435.928 40.9613 435.518 41.092C435.116 41.2227 434.776 41.4047 434.496 41.638L433.81 40.364C434.211 40.056 434.687 39.8273 435.238 39.678C435.798 39.5193 436.376 39.44 436.974 39.44C438.056 39.44 438.892 39.7013 439.48 40.224C440.077 40.7373 440.376 41.5353 440.376 42.618V47H438.724ZM436.372 47.098C435.812 47.098 435.322 47.0047 434.902 46.818C434.482 46.622 434.155 46.356 433.922 46.02C433.698 45.6747 433.586 45.2873 433.586 44.858C433.586 44.438 433.684 44.06 433.88 43.724C434.085 43.388 434.416 43.122 434.874 42.926C435.331 42.73 435.938 42.632 436.694 42.632H438.864V43.794H436.82C436.222 43.794 435.821 43.892 435.616 44.088C435.41 44.2747 435.308 44.508 435.308 44.788C435.308 45.1053 435.434 45.3573 435.686 45.544C435.938 45.7307 436.288 45.824 436.736 45.824C437.165 45.824 437.548 45.726 437.884 45.53C438.229 45.334 438.476 45.0447 438.626 44.662L438.92 45.712C438.752 46.1507 438.448 46.4913 438.01 46.734C437.58 46.9767 437.034 47.098 436.372 47.098ZM446.864 39.44C447.461 39.44 447.993 39.5567 448.46 39.79C448.936 40.0233 449.309 40.3827 449.58 40.868C449.85 41.344 449.986 41.96 449.986 42.716V47H448.236V42.94C448.236 42.2773 448.077 41.7827 447.76 41.456C447.452 41.1293 447.018 40.966 446.458 40.966C446.047 40.966 445.683 41.05 445.366 41.218C445.048 41.386 444.801 41.638 444.624 41.974C444.456 42.3007 444.372 42.716 444.372 43.22V47H442.622V39.524H444.288V41.54L443.994 40.924C444.255 40.448 444.633 40.084 445.128 39.832C445.632 39.5707 446.21 39.44 446.864 39.44ZM459.239 47.098C458.52 47.098 457.871 46.9393 457.293 46.622C456.723 46.2953 456.275 45.8473 455.949 45.278C455.622 44.7087 455.459 44.0367 455.459 43.262C455.459 42.4873 455.622 41.8153 455.949 41.246C456.275 40.6767 456.723 40.2333 457.293 39.916C457.871 39.5987 458.52 39.44 459.239 39.44C459.864 39.44 460.424 39.58 460.919 39.86C461.413 40.1307 461.805 40.546 462.095 41.106C462.384 41.666 462.529 42.3847 462.529 43.262C462.529 44.13 462.389 44.8487 462.109 45.418C461.829 45.978 461.441 46.398 460.947 46.678C460.452 46.958 459.883 47.098 459.239 47.098ZM459.449 45.6C459.869 45.6 460.242 45.5067 460.569 45.32C460.905 45.1333 461.171 44.8627 461.367 44.508C461.572 44.1533 461.675 43.738 461.675 43.262C461.675 42.7767 461.572 42.3613 461.367 42.016C461.171 41.6613 460.905 41.3907 460.569 41.204C460.242 41.0173 459.869 40.924 459.449 40.924C459.029 40.924 458.651 41.0173 458.315 41.204C457.988 41.3907 457.722 41.6613 457.517 42.016C457.321 42.3613 457.223 42.7767 457.223 43.262C457.223 43.738 457.321 44.1533 457.517 44.508C457.722 44.8627 457.988 45.1333 458.315 45.32C458.651 45.5067 459.029 45.6 459.449 45.6ZM461.717 47V45.236L461.787 43.248L461.647 41.26V36.612H463.383V47H461.717ZM469.2 47.098C468.369 47.098 467.641 46.9347 467.016 46.608C466.4 46.272 465.919 45.8147 465.574 45.236C465.238 44.6573 465.07 43.9993 465.07 43.262C465.07 42.5153 465.233 41.8573 465.56 41.288C465.896 40.7093 466.353 40.2567 466.932 39.93C467.52 39.6033 468.187 39.44 468.934 39.44C469.662 39.44 470.311 39.5987 470.88 39.916C471.449 40.2333 471.897 40.6813 472.224 41.26C472.551 41.8387 472.714 42.52 472.714 43.304C472.714 43.3787 472.709 43.4627 472.7 43.556C472.7 43.6493 472.695 43.738 472.686 43.822H466.456V42.66H471.762L471.076 43.024C471.085 42.5947 470.997 42.2167 470.81 41.89C470.623 41.5633 470.367 41.3067 470.04 41.12C469.723 40.9333 469.354 40.84 468.934 40.84C468.505 40.84 468.127 40.9333 467.8 41.12C467.483 41.3067 467.231 41.568 467.044 41.904C466.867 42.2307 466.778 42.618 466.778 43.066V43.346C466.778 43.794 466.881 44.1907 467.086 44.536C467.291 44.8813 467.581 45.1473 467.954 45.334C468.327 45.5207 468.757 45.614 469.242 45.614C469.662 45.614 470.04 45.5487 470.376 45.418C470.712 45.2873 471.011 45.082 471.272 44.802L472.21 45.88C471.874 46.272 471.449 46.5753 470.936 46.79C470.432 46.9953 469.853 47.098 469.2 47.098ZM487.7 39.44C488.298 39.44 488.825 39.5567 489.282 39.79C489.749 40.0233 490.113 40.3827 490.374 40.868C490.636 41.344 490.766 41.96 490.766 42.716V47H489.016V42.94C489.016 42.2773 488.872 41.7827 488.582 41.456C488.293 41.1293 487.878 40.966 487.336 40.966C486.954 40.966 486.613 41.05 486.314 41.218C486.025 41.386 485.796 41.6333 485.628 41.96C485.47 42.2867 485.39 42.702 485.39 43.206V47H483.64V42.94C483.64 42.2773 483.496 41.7827 483.206 41.456C482.917 41.1293 482.502 40.966 481.96 40.966C481.578 40.966 481.237 41.05 480.938 41.218C480.649 41.386 480.42 41.6333 480.252 41.96C480.094 42.2867 480.014 42.702 480.014 43.206V47H478.264V39.524H479.93V41.512L479.636 40.924C479.888 40.4387 480.252 40.07 480.728 39.818C481.214 39.566 481.764 39.44 482.38 39.44C483.08 39.44 483.687 39.6127 484.2 39.958C484.723 40.3033 485.068 40.826 485.236 41.526L484.55 41.288C484.793 40.728 485.194 40.28 485.754 39.944C486.314 39.608 486.963 39.44 487.7 39.44ZM496.53 47.098C495.699 47.098 494.971 46.9347 494.346 46.608C493.73 46.272 493.249 45.8147 492.904 45.236C492.568 44.6573 492.4 43.9993 492.4 43.262C492.4 42.5153 492.563 41.8573 492.89 41.288C493.226 40.7093 493.683 40.2567 494.262 39.93C494.85 39.6033 495.517 39.44 496.264 39.44C496.992 39.44 497.641 39.5987 498.21 39.916C498.779 40.2333 499.227 40.6813 499.554 41.26C499.881 41.8387 500.044 42.52 500.044 43.304C500.044 43.3787 500.039 43.4627 500.03 43.556C500.03 43.6493 500.025 43.738 500.016 43.822H493.786V42.66H499.092L498.406 43.024C498.415 42.5947 498.327 42.2167 498.14 41.89C497.953 41.5633 497.697 41.3067 497.37 41.12C497.053 40.9333 496.684 40.84 496.264 40.84C495.835 40.84 495.457 40.9333 495.13 41.12C494.813 41.3067 494.561 41.568 494.374 41.904C494.197 42.2307 494.108 42.618 494.108 43.066V43.346C494.108 43.794 494.211 44.1907 494.416 44.536C494.621 44.8813 494.911 45.1473 495.284 45.334C495.657 45.5207 496.087 45.614 496.572 45.614C496.992 45.614 497.37 45.5487 497.706 45.418C498.042 45.2873 498.341 45.082 498.602 44.802L499.54 45.88C499.204 46.272 498.779 46.5753 498.266 46.79C497.762 46.9953 497.183 47.098 496.53 47.098ZM505.967 39.44C506.564 39.44 507.096 39.5567 507.563 39.79C508.039 40.0233 508.412 40.3827 508.683 40.868C508.954 41.344 509.089 41.96 509.089 42.716V47H507.339V42.94C507.339 42.2773 507.18 41.7827 506.863 41.456C506.555 41.1293 506.121 40.966 505.561 40.966C505.15 40.966 504.786 41.05 504.469 41.218C504.152 41.386 503.904 41.638 503.727 41.974C503.559 42.3007 503.475 42.716 503.475 43.22V47H501.725V39.524H503.391V41.54L503.097 40.924C503.358 40.448 503.736 40.084 504.231 39.832C504.735 39.5707 505.314 39.44 505.967 39.44ZM514.123 47.098C513.302 47.098 512.667 46.888 512.219 46.468C511.771 46.0387 511.547 45.4087 511.547 44.578V37.872H513.297V44.536C513.297 44.8907 513.386 45.166 513.563 45.362C513.75 45.558 514.006 45.656 514.333 45.656C514.725 45.656 515.052 45.5533 515.313 45.348L515.803 46.594C515.598 46.762 515.346 46.888 515.047 46.972C514.748 47.056 514.44 47.098 514.123 47.098ZM510.315 40.98V39.58H515.299V40.98H510.315ZM520.357 47.098C519.591 47.098 518.91 46.9347 518.313 46.608C517.715 46.272 517.244 45.8147 516.899 45.236C516.553 44.6573 516.381 43.9993 516.381 43.262C516.381 42.5153 516.553 41.8573 516.899 41.288C517.244 40.7093 517.715 40.2567 518.313 39.93C518.91 39.6033 519.591 39.44 520.357 39.44C521.131 39.44 521.817 39.6033 522.415 39.93C523.021 40.2567 523.493 40.7047 523.829 41.274C524.174 41.8433 524.347 42.506 524.347 43.262C524.347 43.9993 524.174 44.6573 523.829 45.236C523.493 45.8147 523.021 46.272 522.415 46.608C521.817 46.9347 521.131 47.098 520.357 47.098ZM520.357 45.6C520.786 45.6 521.169 45.5067 521.505 45.32C521.841 45.1333 522.102 44.8627 522.289 44.508C522.485 44.1533 522.583 43.738 522.583 43.262C522.583 42.7767 522.485 42.3613 522.289 42.016C522.102 41.6613 521.841 41.3907 521.505 41.204C521.169 41.0173 520.791 40.924 520.371 40.924C519.941 40.924 519.559 41.0173 519.223 41.204C518.896 41.3907 518.635 41.6613 518.439 42.016C518.243 42.3613 518.145 42.7767 518.145 43.262C518.145 43.738 518.243 44.1533 518.439 44.508C518.635 44.8627 518.896 45.1333 519.223 45.32C519.559 45.5067 519.937 45.6 520.357 45.6ZM526.02 47V39.524H527.686V41.582L527.49 40.98C527.714 40.476 528.064 40.0933 528.54 39.832C529.025 39.5707 529.627 39.44 530.346 39.44V41.106C530.271 41.0873 530.201 41.078 530.136 41.078C530.071 41.0687 530.005 41.064 529.94 41.064C529.277 41.064 528.75 41.26 528.358 41.652C527.966 42.0347 527.77 42.6087 527.77 43.374V47H526.02ZM531.831 47V39.524H533.581V47H531.831ZM532.713 38.292C532.386 38.292 532.115 38.1893 531.901 37.984C531.695 37.7787 531.593 37.5313 531.593 37.242C531.593 36.9433 531.695 36.696 531.901 36.5C532.115 36.2947 532.386 36.192 532.713 36.192C533.039 36.192 533.305 36.29 533.511 36.486C533.725 36.6727 533.833 36.9107 533.833 37.2C533.833 37.508 533.73 37.7693 533.525 37.984C533.319 38.1893 533.049 38.292 532.713 38.292ZM540.119 39.44C540.717 39.44 541.249 39.5567 541.715 39.79C542.191 40.0233 542.565 40.3827 542.835 40.868C543.106 41.344 543.241 41.96 543.241 42.716V47H541.491V42.94C541.491 42.2773 541.333 41.7827 541.015 41.456C540.707 41.1293 540.273 40.966 539.713 40.966C539.303 40.966 538.939 41.05 538.621 41.218C538.304 41.386 538.057 41.638 537.879 41.974C537.711 42.3007 537.627 42.716 537.627 43.22V47H535.877V39.524H537.543V41.54L537.249 40.924C537.511 40.448 537.889 40.084 538.383 39.832C538.887 39.5707 539.466 39.44 540.119 39.44ZM548.863 49.814C548.172 49.814 547.496 49.7207 546.833 49.534C546.18 49.3567 545.643 49.0953 545.223 48.75L546.007 47.434C546.334 47.7047 546.744 47.9193 547.239 48.078C547.743 48.246 548.252 48.33 548.765 48.33C549.586 48.33 550.188 48.1387 550.571 47.756C550.954 47.3827 551.145 46.818 551.145 46.062V44.732L551.285 43.038L551.229 41.344V39.524H552.895V45.866C552.895 47.2193 552.55 48.2133 551.859 48.848C551.168 49.492 550.17 49.814 548.863 49.814ZM548.639 46.664C547.93 46.664 547.286 46.5147 546.707 46.216C546.138 45.908 545.685 45.4833 545.349 44.942C545.022 44.4007 544.859 43.766 544.859 43.038C544.859 42.3193 545.022 41.6893 545.349 41.148C545.685 40.6067 546.138 40.1867 546.707 39.888C547.286 39.5893 547.93 39.44 548.639 39.44C549.274 39.44 549.843 39.566 550.347 39.818C550.851 40.07 551.252 40.462 551.551 40.994C551.859 41.526 552.013 42.2073 552.013 43.038C552.013 43.8687 551.859 44.5547 551.551 45.096C551.252 45.628 550.851 46.0247 550.347 46.286C549.843 46.538 549.274 46.664 548.639 46.664ZM548.905 45.18C549.344 45.18 549.736 45.0913 550.081 44.914C550.426 44.7273 550.692 44.4753 550.879 44.158C551.075 43.8313 551.173 43.458 551.173 43.038C551.173 42.618 551.075 42.2493 550.879 41.932C550.692 41.6053 550.426 41.358 550.081 41.19C549.736 41.0127 549.344 40.924 548.905 40.924C548.466 40.924 548.07 41.0127 547.715 41.19C547.37 41.358 547.099 41.6053 546.903 41.932C546.716 42.2493 546.623 42.618 546.623 43.038C546.623 43.458 546.716 43.8313 546.903 44.158C547.099 44.4753 547.37 44.7273 547.715 44.914C548.07 45.0913 548.466 45.18 548.905 45.18Z" fill="white"/>
<path d="M595.5 41.5H640.5" stroke="#020202" stroke-width="5" stroke-linecap="round" stroke-linejoin="round"/>
<path d="M633 34L640.5 41.5L633 49" stroke="#020202" stroke-width="5" stroke-linecap="round" stroke-linejoin="round"/>
<rect x="648" width="264" height="83" rx="8" fill="#8B67C2"/>
<path d="M671.536 47.14C670.771 47.14 670.066 47.014 669.422 46.762C668.778 46.51 668.218 46.16 667.742 45.712C667.266 45.2547 666.897 44.7227 666.636 44.116C666.375 43.5 666.244 42.828 666.244 42.1C666.244 41.372 666.375 40.7047 666.636 40.098C666.897 39.482 667.266 38.95 667.742 38.502C668.218 38.0447 668.778 37.69 669.422 37.438C670.066 37.186 670.766 37.06 671.522 37.06C672.287 37.06 672.987 37.186 673.622 37.438C674.266 37.69 674.826 38.0447 675.302 38.502C675.778 38.95 676.147 39.482 676.408 40.098C676.669 40.7047 676.8 41.372 676.8 42.1C676.8 42.828 676.669 43.5 676.408 44.116C676.147 44.732 675.778 45.264 675.302 45.712C674.826 46.16 674.266 46.51 673.622 46.762C672.987 47.014 672.292 47.14 671.536 47.14ZM671.522 45.544C672.017 45.544 672.474 45.46 672.894 45.292C673.314 45.124 673.678 44.886 673.986 44.578C674.294 44.2607 674.532 43.8967 674.7 43.486C674.877 43.066 674.966 42.604 674.966 42.1C674.966 41.596 674.877 41.1387 674.7 40.728C674.532 40.308 674.294 39.944 673.986 39.636C673.678 39.3187 673.314 39.076 672.894 38.908C672.474 38.74 672.017 38.656 671.522 38.656C671.027 38.656 670.57 38.74 670.15 38.908C669.739 39.076 669.375 39.3187 669.058 39.636C668.75 39.944 668.507 40.308 668.33 40.728C668.162 41.1387 668.078 41.596 668.078 42.1C668.078 42.5947 668.162 43.052 668.33 43.472C668.507 43.892 668.75 44.2607 669.058 44.578C669.366 44.886 669.73 45.124 670.15 45.292C670.57 45.46 671.027 45.544 671.522 45.544ZM682.705 47.098C682.098 47.098 681.543 46.958 681.039 46.678C680.544 46.398 680.148 45.978 679.849 45.418C679.56 44.8487 679.415 44.13 679.415 43.262C679.415 42.3847 679.555 41.666 679.835 41.106C680.124 40.546 680.516 40.1307 681.011 39.86C681.506 39.58 682.07 39.44 682.705 39.44C683.442 39.44 684.091 39.5987 684.651 39.916C685.22 40.2333 685.668 40.6767 685.995 41.246C686.331 41.8153 686.499 42.4873 686.499 43.262C686.499 44.0367 686.331 44.7133 685.995 45.292C685.668 45.8613 685.22 46.3047 684.651 46.622C684.091 46.9393 683.442 47.098 682.705 47.098ZM678.561 49.716V39.524H680.227V41.288L680.171 43.276L680.311 45.264V49.716H678.561ZM682.509 45.6C682.929 45.6 683.302 45.5067 683.629 45.32C683.965 45.1333 684.231 44.8627 684.427 44.508C684.623 44.1533 684.721 43.738 684.721 43.262C684.721 42.7767 684.623 42.3613 684.427 42.016C684.231 41.6613 683.965 41.3907 683.629 41.204C683.302 41.0173 682.929 40.924 682.509 40.924C682.089 40.924 681.711 41.0173 681.375 41.204C681.039 41.3907 680.773 41.6613 680.577 42.016C680.381 42.3613 680.283 42.7767 680.283 43.262C680.283 43.738 680.381 44.1533 680.577 44.508C680.773 44.8627 681.039 45.1333 681.375 45.32C681.711 45.5067 682.089 45.6 682.509 45.6ZM692.303 47.098C691.668 47.098 691.103 46.958 690.609 46.678C690.114 46.398 689.722 45.978 689.433 45.418C689.153 44.8487 689.013 44.13 689.013 43.262C689.013 42.3847 689.157 41.666 689.447 41.106C689.745 40.546 690.142 40.1307 690.637 39.86C691.141 39.58 691.696 39.44 692.303 39.44C693.04 39.44 693.689 39.5987 694.249 39.916C694.818 40.2333 695.266 40.6767 695.593 41.246C695.929 41.8153 696.097 42.4873 696.097 43.262C696.097 44.0367 695.929 44.7087 695.593 45.278C695.266 45.8473 694.818 46.2953 694.249 46.622C693.689 46.9393 693.04 47.098 692.303 47.098ZM688.159 47V36.612H689.909V41.26L689.769 43.248L689.825 45.236V47H688.159ZM692.107 45.6C692.527 45.6 692.9 45.5067 693.227 45.32C693.563 45.1333 693.829 44.8627 694.025 44.508C694.221 44.1533 694.319 43.738 694.319 43.262C694.319 42.7767 694.221 42.3613 694.025 42.016C693.829 41.6613 693.563 41.3907 693.227 41.204C692.9 41.0173 692.527 40.924 692.107 40.924C691.687 40.924 691.309 41.0173 690.973 41.204C690.637 41.3907 690.371 41.6613 690.175 42.016C689.979 42.3613 689.881 42.7767 689.881 43.262C689.881 43.738 689.979 44.1533 690.175 44.508C690.371 44.8627 690.637 45.1333 690.973 45.32C691.309 45.5067 691.687 45.6 692.107 45.6ZM697.756 47V39.524H699.422V41.582L699.226 40.98C699.45 40.476 699.8 40.0933 700.276 39.832C700.762 39.5707 701.364 39.44 702.082 39.44V41.106C702.008 41.0873 701.938 41.078 701.872 41.078C701.807 41.0687 701.742 41.064 701.676 41.064C701.014 41.064 700.486 41.26 700.094 41.652C699.702 42.0347 699.506 42.6087 699.506 43.374V47H697.756ZM707.013 47.098C706.182 47.098 705.454 46.9347 704.829 46.608C704.213 46.272 703.732 45.8147 703.387 45.236C703.051 44.6573 702.883 43.9993 702.883 43.262C702.883 42.5153 703.046 41.8573 703.373 41.288C703.709 40.7093 704.166 40.2567 704.745 39.93C705.333 39.6033 706 39.44 706.747 39.44C707.475 39.44 708.123 39.5987 708.693 39.916C709.262 40.2333 709.71 40.6813 710.037 41.26C710.363 41.8387 710.527 42.52 710.527 43.304C710.527 43.3787 710.522 43.4627 710.513 43.556C710.513 43.6493 710.508 43.738 710.499 43.822H704.269V42.66H709.575L708.889 43.024C708.898 42.5947 708.809 42.2167 708.623 41.89C708.436 41.5633 708.179 41.3067 707.853 41.12C707.535 40.9333 707.167 40.84 706.747 40.84C706.317 40.84 705.939 40.9333 705.613 41.12C705.295 41.3067 705.043 41.568 704.857 41.904C704.679 42.2307 704.591 42.618 704.591 43.066V43.346C704.591 43.794 704.693 44.1907 704.899 44.536C705.104 44.8813 705.393 45.1473 705.767 45.334C706.14 45.5207 706.569 45.614 707.055 45.614C707.475 45.614 707.853 45.5487 708.189 45.418C708.525 45.2873 708.823 45.082 709.085 44.802L710.023 45.88C709.687 46.272 709.262 46.5753 708.749 46.79C708.245 46.9953 707.666 47.098 707.013 47.098ZM716.45 39.44C717.047 39.44 717.579 39.5567 718.046 39.79C718.522 40.0233 718.895 40.3827 719.166 40.868C719.436 41.344 719.572 41.96 719.572 42.716V47H717.822V42.94C717.822 42.2773 717.663 41.7827 717.346 41.456C717.038 41.1293 716.604 40.966 716.044 40.966C715.633 40.966 715.269 41.05 714.952 41.218C714.634 41.386 714.387 41.638 714.21 41.974C714.042 42.3007 713.958 42.716 713.958 43.22V47H712.208V39.524H713.874V41.54L713.58 40.924C713.841 40.448 714.219 40.084 714.714 39.832C715.218 39.5707 715.796 39.44 716.45 39.44ZM725.193 49.814C724.503 49.814 723.826 49.7207 723.163 49.534C722.51 49.3567 721.973 49.0953 721.553 48.75L722.337 47.434C722.664 47.7047 723.075 47.9193 723.569 48.078C724.073 48.246 724.582 48.33 725.095 48.33C725.917 48.33 726.519 48.1387 726.901 47.756C727.284 47.3827 727.475 46.818 727.475 46.062V44.732L727.615 43.038L727.559 41.344V39.524H729.225V45.866C729.225 47.2193 728.88 48.2133 728.189 48.848C727.499 49.492 726.5 49.814 725.193 49.814ZM724.969 46.664C724.26 46.664 723.616 46.5147 723.037 46.216C722.468 45.908 722.015 45.4833 721.679 44.942C721.353 44.4007 721.189 43.766 721.189 43.038C721.189 42.3193 721.353 41.6893 721.679 41.148C722.015 40.6067 722.468 40.1867 723.037 39.888C723.616 39.5893 724.26 39.44 724.969 39.44C725.604 39.44 726.173 39.566 726.677 39.818C727.181 40.07 727.583 40.462 727.881 40.994C728.189 41.526 728.343 42.2073 728.343 43.038C728.343 43.8687 728.189 44.5547 727.881 45.096C727.583 45.628 727.181 46.0247 726.677 46.286C726.173 46.538 725.604 46.664 724.969 46.664ZM725.235 45.18C725.674 45.18 726.066 45.0913 726.411 44.914C726.757 44.7273 727.023 44.4753 727.209 44.158C727.405 43.8313 727.503 43.458 727.503 43.038C727.503 42.618 727.405 42.2493 727.209 41.932C727.023 41.6053 726.757 41.358 726.411 41.19C726.066 41.0127 725.674 40.924 725.235 40.924C724.797 40.924 724.4 41.0127 724.045 41.19C723.7 41.358 723.429 41.6053 723.233 41.932C723.047 42.2493 722.953 42.618 722.953 43.038C722.953 43.458 723.047 43.8313 723.233 44.158C723.429 44.4753 723.7 44.7273 724.045 44.914C724.4 45.0913 724.797 45.18 725.235 45.18ZM733.836 47.098C733.211 47.098 732.609 47.0187 732.03 46.86C731.461 46.692 731.008 46.4913 730.672 46.258L731.344 44.928C731.68 45.1427 732.081 45.32 732.548 45.46C733.015 45.6 733.481 45.67 733.948 45.67C734.499 45.67 734.895 45.5953 735.138 45.446C735.39 45.2967 735.516 45.096 735.516 44.844C735.516 44.6387 735.432 44.4847 735.264 44.382C735.096 44.27 734.877 44.186 734.606 44.13C734.335 44.074 734.032 44.0227 733.696 43.976C733.369 43.9293 733.038 43.8687 732.702 43.794C732.375 43.71 732.077 43.5933 731.806 43.444C731.535 43.2853 731.316 43.0753 731.148 42.814C730.98 42.5527 730.896 42.2073 730.896 41.778C730.896 41.302 731.031 40.8913 731.302 40.546C731.573 40.1913 731.951 39.9207 732.436 39.734C732.931 39.538 733.514 39.44 734.186 39.44C734.69 39.44 735.199 39.496 735.712 39.608C736.225 39.72 736.65 39.8787 736.986 40.084L736.314 41.414C735.959 41.1993 735.6 41.0547 735.236 40.98C734.881 40.896 734.527 40.854 734.172 40.854C733.64 40.854 733.243 40.9333 732.982 41.092C732.73 41.2507 732.604 41.4513 732.604 41.694C732.604 41.918 732.688 42.086 732.856 42.198C733.024 42.31 733.243 42.3987 733.514 42.464C733.785 42.5293 734.083 42.5853 734.41 42.632C734.746 42.6693 735.077 42.73 735.404 42.814C735.731 42.898 736.029 43.0147 736.3 43.164C736.58 43.304 736.804 43.5047 736.972 43.766C737.14 44.0273 737.224 44.368 737.224 44.788C737.224 45.2547 737.084 45.6607 736.804 46.006C736.533 46.3513 736.146 46.622 735.642 46.818C735.138 47.0047 734.536 47.098 733.836 47.098ZM741.545 47.098C740.724 47.098 740.089 46.888 739.641 46.468C739.193 46.0387 738.969 45.4087 738.969 44.578V37.872H740.719V44.536C740.719 44.8907 740.808 45.166 740.985 45.362C741.172 45.558 741.428 45.656 741.755 45.656C742.147 45.656 742.474 45.5533 742.735 45.348L743.225 46.594C743.02 46.762 742.768 46.888 742.469 46.972C742.17 47.056 741.862 47.098 741.545 47.098ZM737.737 40.98V39.58H742.721V40.98H737.737ZM747.933 47.098C747.102 47.098 746.374 46.9347 745.749 46.608C745.133 46.272 744.652 45.8147 744.307 45.236C743.971 44.6573 743.803 43.9993 743.803 43.262C743.803 42.5153 743.966 41.8573 744.293 41.288C744.629 40.7093 745.086 40.2567 745.665 39.93C746.253 39.6033 746.92 39.44 747.667 39.44C748.395 39.44 749.043 39.5987 749.613 39.916C750.182 40.2333 750.63 40.6813 750.957 41.26C751.283 41.8387 751.447 42.52 751.447 43.304C751.447 43.3787 751.442 43.4627 751.433 43.556C751.433 43.6493 751.428 43.738 751.419 43.822H745.189V42.66H750.495L749.809 43.024C749.818 42.5947 749.729 42.2167 749.543 41.89C749.356 41.5633 749.099 41.3067 748.773 41.12C748.455 40.9333 748.087 40.84 747.667 40.84C747.237 40.84 746.859 40.9333 746.533 41.12C746.215 41.3067 745.963 41.568 745.777 41.904C745.599 42.2307 745.511 42.618 745.511 43.066V43.346C745.511 43.794 745.613 44.1907 745.819 44.536C746.024 44.8813 746.313 45.1473 746.687 45.334C747.06 45.5207 747.489 45.614 747.975 45.614C748.395 45.614 748.773 45.5487 749.109 45.418C749.445 45.2873 749.743 45.082 750.005 44.802L750.943 45.88C750.607 46.272 750.182 46.5753 749.669 46.79C749.165 46.9953 748.586 47.098 747.933 47.098ZM757.369 39.44C757.967 39.44 758.499 39.5567 758.965 39.79C759.441 40.0233 759.815 40.3827 760.085 40.868C760.356 41.344 760.491 41.96 760.491 42.716V47H758.741V42.94C758.741 42.2773 758.583 41.7827 758.265 41.456C757.957 41.1293 757.523 40.966 756.963 40.966C756.553 40.966 756.189 41.05 755.871 41.218C755.554 41.386 755.307 41.638 755.129 41.974C754.961 42.3007 754.877 42.716 754.877 43.22V47H753.127V39.524H754.793V41.54L754.499 40.924C754.761 40.448 755.139 40.084 755.633 39.832C756.137 39.5707 756.716 39.44 757.369 39.44ZM768.569 47L765.363 39.524H767.183L769.941 46.118H769.045L771.901 39.524H773.581L770.375 47H768.569ZM779.048 47V45.488L778.95 45.166V42.52C778.95 42.0067 778.796 41.61 778.488 41.33C778.18 41.0407 777.713 40.896 777.088 40.896C776.668 40.896 776.253 40.9613 775.842 41.092C775.441 41.2227 775.1 41.4047 774.82 41.638L774.134 40.364C774.535 40.056 775.011 39.8273 775.562 39.678C776.122 39.5193 776.701 39.44 777.298 39.44C778.381 39.44 779.216 39.7013 779.804 40.224C780.401 40.7373 780.7 41.5353 780.7 42.618V47H779.048ZM776.696 47.098C776.136 47.098 775.646 47.0047 775.226 46.818C774.806 46.622 774.479 46.356 774.246 46.02C774.022 45.6747 773.91 45.2873 773.91 44.858C773.91 44.438 774.008 44.06 774.204 43.724C774.409 43.388 774.741 43.122 775.198 42.926C775.655 42.73 776.262 42.632 777.018 42.632H779.188V43.794H777.144C776.547 43.794 776.145 43.892 775.94 44.088C775.735 44.2747 775.632 44.508 775.632 44.788C775.632 45.1053 775.758 45.3573 776.01 45.544C776.262 45.7307 776.612 45.824 777.06 45.824C777.489 45.824 777.872 45.726 778.208 45.53C778.553 45.334 778.801 45.0447 778.95 44.662L779.244 45.712C779.076 46.1507 778.773 46.4913 778.334 46.734C777.905 46.9767 777.359 47.098 776.696 47.098ZM787.188 39.44C787.785 39.44 788.317 39.5567 788.784 39.79C789.26 40.0233 789.633 40.3827 789.904 40.868C790.175 41.344 790.31 41.96 790.31 42.716V47H788.56V42.94C788.56 42.2773 788.401 41.7827 788.084 41.456C787.776 41.1293 787.342 40.966 786.782 40.966C786.371 40.966 786.007 41.05 785.69 41.218C785.373 41.386 785.125 41.638 784.948 41.974C784.78 42.3007 784.696 42.716 784.696 43.22V47H782.946V39.524H784.612V41.54L784.318 40.924C784.579 40.448 784.957 40.084 785.452 39.832C785.956 39.5707 786.535 39.44 787.188 39.44ZM799.563 47.098C798.844 47.098 798.196 46.9393 797.617 46.622C797.048 46.2953 796.6 45.8473 796.273 45.278C795.946 44.7087 795.783 44.0367 795.783 43.262C795.783 42.4873 795.946 41.8153 796.273 41.246C796.6 40.6767 797.048 40.2333 797.617 39.916C798.196 39.5987 798.844 39.44 799.563 39.44C800.188 39.44 800.748 39.58 801.243 39.86C801.738 40.1307 802.13 40.546 802.419 41.106C802.708 41.666 802.853 42.3847 802.853 43.262C802.853 44.13 802.713 44.8487 802.433 45.418C802.153 45.978 801.766 46.398 801.271 46.678C800.776 46.958 800.207 47.098 799.563 47.098ZM799.773 45.6C800.193 45.6 800.566 45.5067 800.893 45.32C801.229 45.1333 801.495 44.8627 801.691 44.508C801.896 44.1533 801.999 43.738 801.999 43.262C801.999 42.7767 801.896 42.3613 801.691 42.016C801.495 41.6613 801.229 41.3907 800.893 41.204C800.566 41.0173 800.193 40.924 799.773 40.924C799.353 40.924 798.975 41.0173 798.639 41.204C798.312 41.3907 798.046 41.6613 797.841 42.016C797.645 42.3613 797.547 42.7767 797.547 43.262C797.547 43.738 797.645 44.1533 797.841 44.508C798.046 44.8627 798.312 45.1333 798.639 45.32C798.975 45.5067 799.353 45.6 799.773 45.6ZM802.041 47V45.236L802.111 43.248L801.971 41.26V36.612H803.707V47H802.041ZM809.524 47.098C808.694 47.098 807.966 46.9347 807.34 46.608C806.724 46.272 806.244 45.8147 805.898 45.236C805.562 44.6573 805.394 43.9993 805.394 43.262C805.394 42.5153 805.558 41.8573 805.884 41.288C806.22 40.7093 806.678 40.2567 807.256 39.93C807.844 39.6033 808.512 39.44 809.258 39.44C809.986 39.44 810.635 39.5987 811.204 39.916C811.774 40.2333 812.222 40.6813 812.548 41.26C812.875 41.8387 813.038 42.52 813.038 43.304C813.038 43.3787 813.034 43.4627 813.024 43.556C813.024 43.6493 813.02 43.738 813.01 43.822H806.78V42.66H812.086L811.4 43.024C811.41 42.5947 811.321 42.2167 811.134 41.89C810.948 41.5633 810.691 41.3067 810.364 41.12C810.047 40.9333 809.678 40.84 809.258 40.84C808.829 40.84 808.451 40.9333 808.124 41.12C807.807 41.3067 807.555 41.568 807.368 41.904C807.191 42.2307 807.102 42.618 807.102 43.066V43.346C807.102 43.794 807.205 44.1907 807.41 44.536C807.616 44.8813 807.905 45.1473 808.278 45.334C808.652 45.5207 809.081 45.614 809.566 45.614C809.986 45.614 810.364 45.5487 810.7 45.418C811.036 45.2873 811.335 45.082 811.596 44.802L812.534 45.88C812.198 46.272 811.774 46.5753 811.26 46.79C810.756 46.9953 810.178 47.098 809.524 47.098ZM828.024 39.44C828.622 39.44 829.149 39.5567 829.606 39.79C830.073 40.0233 830.437 40.3827 830.698 40.868C830.96 41.344 831.09 41.96 831.09 42.716V47H829.34V42.94C829.34 42.2773 829.196 41.7827 828.906 41.456C828.617 41.1293 828.202 40.966 827.66 40.966C827.278 40.966 826.937 41.05 826.638 41.218C826.349 41.386 826.12 41.6333 825.952 41.96C825.794 42.2867 825.714 42.702 825.714 43.206V47H823.964V42.94C823.964 42.2773 823.82 41.7827 823.53 41.456C823.241 41.1293 822.826 40.966 822.284 40.966C821.902 40.966 821.561 41.05 821.262 41.218C820.973 41.386 820.744 41.6333 820.576 41.96C820.418 42.2867 820.338 42.702 820.338 43.206V47H818.588V39.524H820.254V41.512L819.96 40.924C820.212 40.4387 820.576 40.07 821.052 39.818C821.538 39.566 822.088 39.44 822.704 39.44C823.404 39.44 824.011 39.6127 824.524 39.958C825.047 40.3033 825.392 40.826 825.56 41.526L824.874 41.288C825.117 40.728 825.518 40.28 826.078 39.944C826.638 39.608 827.287 39.44 828.024 39.44ZM836.854 47.098C836.024 47.098 835.296 46.9347 834.67 46.608C834.054 46.272 833.574 45.8147 833.228 45.236C832.892 44.6573 832.724 43.9993 832.724 43.262C832.724 42.5153 832.888 41.8573 833.214 41.288C833.55 40.7093 834.008 40.2567 834.586 39.93C835.174 39.6033 835.842 39.44 836.588 39.44C837.316 39.44 837.965 39.5987 838.534 39.916C839.104 40.2333 839.552 40.6813 839.878 41.26C840.205 41.8387 840.368 42.52 840.368 43.304C840.368 43.3787 840.364 43.4627 840.354 43.556C840.354 43.6493 840.35 43.738 840.34 43.822H834.11V42.66H839.416L838.73 43.024C838.74 42.5947 838.651 42.2167 838.464 41.89C838.278 41.5633 838.021 41.3067 837.694 41.12C837.377 40.9333 837.008 40.84 836.588 40.84C836.159 40.84 835.781 40.9333 835.454 41.12C835.137 41.3067 834.885 41.568 834.698 41.904C834.521 42.2307 834.432 42.618 834.432 43.066V43.346C834.432 43.794 834.535 44.1907 834.74 44.536C834.946 44.8813 835.235 45.1473 835.608 45.334C835.982 45.5207 836.411 45.614 836.896 45.614C837.316 45.614 837.694 45.5487 838.03 45.418C838.366 45.2873 838.665 45.082 838.926 44.802L839.864 45.88C839.528 46.272 839.104 46.5753 838.59 46.79C838.086 46.9953 837.508 47.098 836.854 47.098ZM846.291 39.44C846.889 39.44 847.421 39.5567 847.887 39.79C848.363 40.0233 848.737 40.3827 849.007 40.868C849.278 41.344 849.413 41.96 849.413 42.716V47H847.663V42.94C847.663 42.2773 847.505 41.7827 847.187 41.456C846.879 41.1293 846.445 40.966 845.885 40.966C845.475 40.966 845.111 41.05 844.793 41.218C844.476 41.386 844.229 41.638 844.051 41.974C843.883 42.3007 843.799 42.716 843.799 43.22V47H842.049V39.524H843.715V41.54L843.421 40.924C843.683 40.448 844.061 40.084 844.555 39.832C845.059 39.5707 845.638 39.44 846.291 39.44ZM854.447 47.098C853.626 47.098 852.991 46.888 852.543 46.468C852.095 46.0387 851.871 45.4087 851.871 44.578V37.872H853.621V44.536C853.621 44.8907 853.71 45.166 853.887 45.362C854.074 45.558 854.331 45.656 854.657 45.656C855.049 45.656 855.376 45.5533 855.637 45.348L856.127 46.594C855.922 46.762 855.67 46.888 855.371 46.972C855.073 47.056 854.765 47.098 854.447 47.098ZM850.639 40.98V39.58H855.623V40.98H850.639ZM860.681 47.098C859.916 47.098 859.234 46.9347 858.637 46.608C858.04 46.272 857.568 45.8147 857.223 45.236C856.878 44.6573 856.705 43.9993 856.705 43.262C856.705 42.5153 856.878 41.8573 857.223 41.288C857.568 40.7093 858.04 40.2567 858.637 39.93C859.234 39.6033 859.916 39.44 860.681 39.44C861.456 39.44 862.142 39.6033 862.739 39.93C863.346 40.2567 863.817 40.7047 864.153 41.274C864.498 41.8433 864.671 42.506 864.671 43.262C864.671 43.9993 864.498 44.6573 864.153 45.236C863.817 45.8147 863.346 46.272 862.739 46.608C862.142 46.9347 861.456 47.098 860.681 47.098ZM860.681 45.6C861.11 45.6 861.493 45.5067 861.829 45.32C862.165 45.1333 862.426 44.8627 862.613 44.508C862.809 44.1533 862.907 43.738 862.907 43.262C862.907 42.7767 862.809 42.3613 862.613 42.016C862.426 41.6613 862.165 41.3907 861.829 41.204C861.493 41.0173 861.115 40.924 860.695 40.924C860.266 40.924 859.883 41.0173 859.547 41.204C859.22 41.3907 858.959 41.6613 858.763 42.016C858.567 42.3613 858.469 42.7767 858.469 43.262C858.469 43.738 858.567 44.1533 858.763 44.508C858.959 44.8627 859.22 45.1333 859.547 45.32C859.883 45.5067 860.261 45.6 860.681 45.6ZM866.344 47V39.524H868.01V41.582L867.814 40.98C868.038 40.476 868.388 40.0933 868.864 39.832C869.35 39.5707 869.952 39.44 870.67 39.44V41.106C870.596 41.0873 870.526 41.078 870.46 41.078C870.395 41.0687 870.33 41.064 870.264 41.064C869.602 41.064 869.074 41.26 868.682 41.652C868.29 42.0347 868.094 42.6087 868.094 43.374V47H866.344ZM872.155 47V39.524H873.905V47H872.155ZM873.037 38.292C872.71 38.292 872.44 38.1893 872.225 37.984C872.02 37.7787 871.917 37.5313 871.917 37.242C871.917 36.9433 872.02 36.696 872.225 36.5C872.44 36.2947 872.71 36.192 873.037 36.192C873.364 36.192 873.63 36.29 873.835 36.486C874.05 36.6727 874.157 36.9107 874.157 37.2C874.157 37.508 874.054 37.7693 873.849 37.984C873.644 38.1893 873.373 38.292 873.037 38.292ZM880.444 39.44C881.041 39.44 881.573 39.5567 882.04 39.79C882.516 40.0233 882.889 40.3827 883.16 40.868C883.43 41.344 883.566 41.96 883.566 42.716V47H881.816V42.94C881.816 42.2773 881.657 41.7827 881.34 41.456C881.032 41.1293 880.598 40.966 880.038 40.966C879.627 40.966 879.263 41.05 878.946 41.218C878.628 41.386 878.381 41.638 878.204 41.974C878.036 42.3007 877.952 42.716 877.952 43.22V47H876.202V39.524H877.868V41.54L877.574 40.924C877.835 40.448 878.213 40.084 878.708 39.832C879.212 39.5707 879.79 39.44 880.444 39.44ZM889.187 49.814C888.497 49.814 887.82 49.7207 887.157 49.534C886.504 49.3567 885.967 49.0953 885.547 48.75L886.331 47.434C886.658 47.7047 887.069 47.9193 887.563 48.078C888.067 48.246 888.576 48.33 889.089 48.33C889.911 48.33 890.513 48.1387 890.895 47.756C891.278 47.3827 891.469 46.818 891.469 46.062V44.732L891.609 43.038L891.553 41.344V39.524H893.219V45.866C893.219 47.2193 892.874 48.2133 892.183 48.848C891.493 49.492 890.494 49.814 889.187 49.814ZM888.963 46.664C888.254 46.664 887.61 46.5147 887.031 46.216C886.462 45.908 886.009 45.4833 885.673 44.942C885.347 44.4007 885.183 43.766 885.183 43.038C885.183 42.3193 885.347 41.6893 885.673 41.148C886.009 40.6067 886.462 40.1867 887.031 39.888C887.61 39.5893 888.254 39.44 888.963 39.44C889.598 39.44 890.167 39.566 890.671 39.818C891.175 40.07 891.577 40.462 891.875 40.994C892.183 41.526 892.337 42.2073 892.337 43.038C892.337 43.8687 892.183 44.5547 891.875 45.096C891.577 45.628 891.175 46.0247 890.671 46.286C890.167 46.538 889.598 46.664 888.963 46.664ZM889.229 45.18C889.668 45.18 890.06 45.0913 890.405 44.914C890.751 44.7273 891.017 44.4753 891.203 44.158C891.399 43.8313 891.497 43.458 891.497 43.038C891.497 42.618 891.399 42.2493 891.203 41.932C891.017 41.6053 890.751 41.358 890.405 41.19C890.06 41.0127 889.668 40.924 889.229 40.924C888.791 40.924 888.394 41.0127 888.039 41.19C887.694 41.358 887.423 41.6053 887.227 41.932C887.041 42.2493 886.947 42.618 886.947 43.038C886.947 43.458 887.041 43.8313 887.227 44.158C887.423 44.4753 887.694 44.7273 888.039 44.914C888.394 45.0913 888.791 45.18 889.229 45.18Z" fill="white"/>
</g>
<defs>
<clipPath id="clip0_140_17">
<rect width="912" height="83" fill="white"/>
</clipPath>
</defs>
</svg>
